<mxfile host="Electron" agent="Mozilla/5.0 (Windows NT 10.0; Win64; x64) AppleWebKit/537.36 (KHTML, like Gecko) draw.io/25.0.2 Chrome/128.0.6613.186 Electron/32.2.5 Safari/537.36" version="25.0.2">
  <diagram name="Страница — 1" id="wndelcyXc58yoL0FOCIV">
    <mxGraphModel dx="1710" dy="988" grid="1" gridSize="10" guides="1" tooltips="1" connect="1" arrows="1" fold="1" page="1" pageScale="1" pageWidth="827" pageHeight="1169" math="0" shadow="0">
      <root>
        <mxCell id="0" />
        <mxCell id="1" parent="0" />
        <mxCell id="DSHUnbfygiFBbf0f4IW9-3" value="" style="edgeStyle=orthogonalEdgeStyle;rounded=0;orthogonalLoop=1;jettySize=auto;html=1;" parent="1" source="DSHUnbfygiFBbf0f4IW9-1" target="DSHUnbfygiFBbf0f4IW9-2" edge="1">
          <mxGeometry relative="1" as="geometry" />
        </mxCell>
        <mxCell id="DSHUnbfygiFBbf0f4IW9-1" value="Специалист" style="shape=umlActor;verticalLabelPosition=bottom;verticalAlign=top;html=1;" parent="1" vertex="1">
          <mxGeometry x="120" y="480" width="30" height="60" as="geometry" />
        </mxCell>
        <mxCell id="DSHUnbfygiFBbf0f4IW9-17" value="" style="edgeStyle=orthogonalEdgeStyle;rounded=0;orthogonalLoop=1;jettySize=auto;html=1;" parent="1" source="DSHUnbfygiFBbf0f4IW9-2" target="DSHUnbfygiFBbf0f4IW9-16" edge="1">
          <mxGeometry relative="1" as="geometry">
            <Array as="points">
              <mxPoint x="390" y="610" />
              <mxPoint x="390" y="610" />
            </Array>
          </mxGeometry>
        </mxCell>
        <mxCell id="DSHUnbfygiFBbf0f4IW9-2" value="&lt;div&gt;&lt;br&gt;&lt;/div&gt;Ресепшен" style="rounded=1;whiteSpace=wrap;html=1;verticalAlign=top;" parent="1" vertex="1">
          <mxGeometry x="330" y="480" width="120" height="60" as="geometry" />
        </mxCell>
        <mxCell id="DSHUnbfygiFBbf0f4IW9-6" value="" style="edgeStyle=orthogonalEdgeStyle;rounded=0;orthogonalLoop=1;jettySize=auto;html=1;entryX=1;entryY=0.5;entryDx=0;entryDy=0;" parent="1" source="DSHUnbfygiFBbf0f4IW9-4" target="DSHUnbfygiFBbf0f4IW9-2" edge="1">
          <mxGeometry relative="1" as="geometry">
            <mxPoint x="515" y="510" as="targetPoint" />
          </mxGeometry>
        </mxCell>
        <mxCell id="DSHUnbfygiFBbf0f4IW9-4" value="Администратор" style="shape=umlActor;verticalLabelPosition=bottom;verticalAlign=top;html=1;" parent="1" vertex="1">
          <mxGeometry x="650" y="480" width="30" height="60" as="geometry" />
        </mxCell>
        <mxCell id="DSHUnbfygiFBbf0f4IW9-7" value="Сообщает&amp;nbsp;&lt;div&gt;персональные данные:&amp;nbsp;&lt;div&gt;ФИО и контакты&lt;/div&gt;&lt;/div&gt;" style="text;html=1;align=center;verticalAlign=middle;resizable=0;points=[];autosize=1;strokeColor=none;fillColor=none;" parent="1" vertex="1">
          <mxGeometry x="230" y="340" width="160" height="60" as="geometry" />
        </mxCell>
        <mxCell id="DSHUnbfygiFBbf0f4IW9-9" value="Сообщает расписание&amp;nbsp;&lt;div&gt;приема специалистов&lt;/div&gt;" style="text;html=1;align=center;verticalAlign=middle;resizable=0;points=[];autosize=1;strokeColor=none;fillColor=none;" parent="1" vertex="1">
          <mxGeometry x="475" y="470" width="150" height="40" as="geometry" />
        </mxCell>
        <mxCell id="DSHUnbfygiFBbf0f4IW9-12" value="" style="edgeStyle=orthogonalEdgeStyle;rounded=0;orthogonalLoop=1;jettySize=auto;html=1;" parent="1" edge="1">
          <mxGeometry relative="1" as="geometry">
            <mxPoint x="389.66" y="300" as="sourcePoint" />
            <mxPoint x="389.66" y="480" as="targetPoint" />
          </mxGeometry>
        </mxCell>
        <mxCell id="DSHUnbfygiFBbf0f4IW9-10" value="Пациент" style="shape=umlActor;verticalLabelPosition=bottom;verticalAlign=top;html=1;" parent="1" vertex="1">
          <mxGeometry x="375" y="210" width="30" height="60" as="geometry" />
        </mxCell>
        <mxCell id="DSHUnbfygiFBbf0f4IW9-13" value="Подтверждает прием" style="text;html=1;align=center;verticalAlign=middle;resizable=0;points=[];autosize=1;strokeColor=none;fillColor=none;" parent="1" vertex="1">
          <mxGeometry x="170" y="480" width="140" height="30" as="geometry" />
        </mxCell>
        <mxCell id="DSHUnbfygiFBbf0f4IW9-14" value="Получает информацию&amp;nbsp;&lt;div&gt;о пациенте&lt;/div&gt;" style="text;html=1;align=center;verticalAlign=middle;resizable=0;points=[];autosize=1;strokeColor=none;fillColor=none;" parent="1" vertex="1">
          <mxGeometry x="160" y="510" width="160" height="40" as="geometry" />
        </mxCell>
        <mxCell id="DSHUnbfygiFBbf0f4IW9-15" value="Получает информацию&amp;nbsp;&lt;div&gt;о расписании&amp;nbsp;&lt;/div&gt;&lt;div&gt;и специалисте&lt;/div&gt;" style="text;html=1;align=center;verticalAlign=middle;resizable=0;points=[];autosize=1;strokeColor=none;fillColor=none;" parent="1" vertex="1">
          <mxGeometry x="390" y="340" width="160" height="60" as="geometry" />
        </mxCell>
        <mxCell id="DSHUnbfygiFBbf0f4IW9-16" value="Файловый сервер" style="shape=cylinder3;whiteSpace=wrap;html=1;boundedLbl=1;backgroundOutline=1;size=15;" parent="1" vertex="1">
          <mxGeometry x="300" y="630" width="180" height="80" as="geometry" />
        </mxCell>
        <mxCell id="DSHUnbfygiFBbf0f4IW9-18" value="Получение расписания и запись на прием в файл Excel&amp;nbsp;" style="text;html=1;align=center;verticalAlign=middle;resizable=0;points=[];autosize=1;strokeColor=none;fillColor=none;" parent="1" vertex="1">
          <mxGeometry x="229" y="585" width="340" height="30" as="geometry" />
        </mxCell>
        <mxCell id="DSHUnbfygiFBbf0f4IW9-19" value="Уведомляет специалиста" style="text;html=1;align=center;verticalAlign=middle;resizable=0;points=[];autosize=1;strokeColor=none;fillColor=none;" parent="1" vertex="1">
          <mxGeometry x="470" y="510" width="160" height="30" as="geometry" />
        </mxCell>
      </root>
    </mxGraphModel>
  </diagram>
</mxfile>
